<svg width="107" height="116" viewBox="0 0 107 116" fill="none" xmlns="http://www.w3.org/2000/svg">
<rect width="107" height="116" rx="20" fill="#482D8D"/>
<path d="M63.8418 18.0991V17.6268H66.6561V18.0991H65.5215V21.2632H64.9746V18.0991H63.8418Z" fill="white"/>
<path d="M77.0347 21.2632V17.6268H79.2896V18.0991H77.5833V19.2071H79.1281V19.6776H77.5833V21.2632H77.0347Z" fill="white"/>
<path d="M92.0315 18.5821C92.0126 18.414 91.9344 18.2838 91.7971 18.1915C91.6598 18.0979 91.487 18.0512 91.2787 18.0512C91.1295 18.0512 91.0005 18.0749 90.8916 18.1222C90.7827 18.1684 90.698 18.2323 90.6377 18.314C90.5785 18.3945 90.5489 18.4862 90.5489 18.5892C90.5489 18.6756 90.569 18.7502 90.6093 18.8129C90.6507 18.8756 90.7046 18.9283 90.7708 18.9709C90.8383 19.0124 90.9105 19.0473 90.9875 19.0757C91.0644 19.1029 91.1384 19.1254 91.2094 19.1432L91.5645 19.2355C91.6805 19.2639 91.7995 19.3024 91.9214 19.3509C92.0433 19.3994 92.1564 19.4633 92.2605 19.5427C92.3647 19.622 92.4488 19.7202 92.5127 19.8374C92.5778 19.9546 92.6103 20.0949 92.6103 20.2582C92.6103 20.4642 92.5571 20.6471 92.4505 20.8069C92.3452 20.9667 92.1919 21.0927 91.9907 21.1851C91.7906 21.2774 91.5485 21.3236 91.2644 21.3236C90.9922 21.3236 90.7566 21.2803 90.5578 21.1939C90.3589 21.1075 90.2033 20.985 90.0908 20.8264C89.9783 20.6666 89.9162 20.4772 89.9044 20.2582H90.4548C90.4654 20.3896 90.5081 20.4991 90.5826 20.5867C90.6584 20.6731 90.7549 20.7376 90.872 20.7802C90.9904 20.8217 91.12 20.8424 91.2609 20.8424C91.416 20.8424 91.5539 20.8181 91.6746 20.7696C91.7965 20.7199 91.8924 20.6512 91.9622 20.5636C92.0321 20.4748 92.067 20.3713 92.067 20.2529C92.067 20.1452 92.0362 20.057 91.9747 19.9883C91.9143 19.9197 91.832 19.8629 91.7279 19.8179C91.6249 19.7729 91.5083 19.7332 91.3781 19.6989L90.9484 19.5817C90.6572 19.5024 90.4264 19.3858 90.2559 19.2319C90.0867 19.0781 90.002 18.8745 90.002 18.6211C90.002 18.4116 90.0588 18.2287 90.1725 18.0725C90.2861 17.9162 90.44 17.7949 90.6341 17.7085C90.8283 17.6209 91.0472 17.5771 91.2911 17.5771C91.5373 17.5771 91.7545 17.6203 91.9427 17.7067C92.1321 17.7931 92.2813 17.9121 92.3902 18.0636C92.4991 18.2139 92.5559 18.3868 92.5606 18.5821H92.0315Z" fill="white"/>
<rect x="8.67567" y="25.9474" width="11.5676" height="13.7368" rx="1" fill="#B2D6FF"/>
<rect x="86.7568" y="25.9474" width="11.5676" height="13.7368" rx="1" fill="#B2D6FF"/>
<rect x="73.7433" y="25.9474" width="11.5676" height="13.7368" rx="1" fill="#B2D6FF"/>
<rect x="21.6892" y="25.9474" width="11.5676" height="13.7368" rx="1" fill="#B2D6FF"/>
<rect x="34.7027" y="25.9474" width="11.5676" height="13.7368" rx="1" fill="#68AFFF"/>
<rect x="60.7298" y="25.9474" width="11.5676" height="13.7368" rx="1" fill="#68AFFF"/>
<rect x="47.7162" y="25.9474" width="11.5676" height="13.7368" rx="1" fill="#87BEFC"/>
<rect x="8.67567" y="41.2106" width="11.5676" height="13.7368" rx="1" fill="#258BFF"/>
<rect x="86.7568" y="41.2106" width="11.5676" height="13.7368" rx="1" fill="#68AFFF"/>
<rect x="73.7433" y="41.2106" width="11.5676" height="13.7368" rx="1" fill="#B2D6FF"/>
<rect x="21.6892" y="41.2106" width="11.5676" height="13.7368" rx="1" fill="#B2D6FF"/>
<rect x="34.7027" y="41.2106" width="11.5676" height="13.7368" rx="1" fill="#B2D6FF"/>
<rect x="60.7298" y="41.2106" width="11.5676" height="13.7368" rx="1" fill="#68AFFF"/>
<rect x="47.7162" y="41.2106" width="11.5676" height="13.7368" rx="1" fill="#75A1D4"/>
<rect x="8.67567" y="56.4736" width="11.5676" height="13.7368" rx="1" fill="#B2D6FF"/>
<rect x="86.7568" y="56.4736" width="11.5676" height="13.7368" rx="1" fill="#B2D6FF"/>
<rect x="73.7433" y="56.4736" width="11.5676" height="13.7368" rx="1" fill="#B2D6FF"/>
<rect x="21.6892" y="56.4736" width="11.5676" height="13.7368" rx="1" fill="#258BFF"/>
<rect x="34.7027" y="56.4736" width="11.5676" height="13.7368" rx="1" fill="#B2D6FF"/>
<rect x="60.7298" y="56.4736" width="11.5676" height="13.7368" rx="1" fill="#258BFF"/>
<rect x="47.7162" y="56.4736" width="11.5676" height="13.7368" rx="1" fill="#87BEFC"/>
<rect x="8.67567" y="71.7368" width="11.5676" height="13.7368" rx="1" fill="#B2D6FF"/>
<rect x="86.7568" y="71.7368" width="11.5676" height="13.7368" rx="1" fill="#B2D6FF"/>
<rect x="73.7433" y="71.7368" width="11.5676" height="13.7368" rx="1" fill="#B2D6FF"/>
<rect x="21.6892" y="71.7368" width="11.5676" height="13.7368" rx="1" fill="#B2D6FF"/>
<rect x="34.7027" y="71.7368" width="11.5676" height="13.7368" rx="1" fill="#68AFFF"/>
<rect x="60.7298" y="71.7368" width="11.5676" height="13.7368" rx="1" fill="#68AFFF"/>
<rect x="47.7162" y="71.7368" width="11.5676" height="13.7368" rx="1" fill="#87BEFC"/>
<path d="M13.9504 18.5821C13.9314 18.414 13.8533 18.2838 13.716 18.1915C13.5787 18.0979 13.4059 18.0512 13.1975 18.0512C13.0484 18.0512 12.9194 18.0749 12.8105 18.1222C12.7016 18.1684 12.6169 18.2323 12.5566 18.314C12.4974 18.3945 12.4678 18.4862 12.4678 18.5892C12.4678 18.6756 12.4879 18.7502 12.5281 18.8129C12.5696 18.8756 12.6234 18.9283 12.6897 18.9709C12.7572 19.0124 12.8294 19.0473 12.9063 19.0757C12.9833 19.1029 13.0573 19.1254 13.1283 19.1432L13.4834 19.2355C13.5994 19.2639 13.7184 19.3024 13.8403 19.3509C13.9622 19.3994 14.0753 19.4633 14.1794 19.5427C14.2836 19.622 14.3676 19.7202 14.4316 19.8374C14.4967 19.9546 14.5292 20.0949 14.5292 20.2582C14.5292 20.4642 14.4759 20.6471 14.3694 20.8069C14.2641 20.9667 14.1108 21.0927 13.9095 21.1851C13.7095 21.2774 13.4674 21.3236 13.1833 21.3236C12.9111 21.3236 12.6755 21.2803 12.4767 21.1939C12.2778 21.1075 12.1221 20.985 12.0097 20.8264C11.8972 20.6666 11.8351 20.4772 11.8232 20.2582H12.3737C12.3843 20.3896 12.4269 20.4991 12.5015 20.5867C12.5773 20.6731 12.6737 20.7376 12.7909 20.7802C12.9093 20.8217 13.0389 20.8424 13.1798 20.8424C13.3348 20.8424 13.4728 20.8181 13.5935 20.7696C13.7154 20.7199 13.8113 20.6512 13.8811 20.5636C13.951 20.4748 13.9859 20.3713 13.9859 20.2529C13.9859 20.1452 13.9551 20.057 13.8936 19.9883C13.8332 19.9197 13.7509 19.8629 13.6468 19.8179C13.5438 19.7729 13.4272 19.7332 13.297 19.6989L12.8673 19.5817C12.5761 19.5024 12.3453 19.3858 12.1748 19.2319C12.0055 19.0781 11.9209 18.8745 11.9209 18.6211C11.9209 18.4116 11.9777 18.2287 12.0914 18.0725C12.205 17.9162 12.3589 17.7949 12.553 17.7085C12.7471 17.6209 12.9661 17.5771 13.21 17.5771C13.4562 17.5771 13.6734 17.6203 13.8616 17.7067C14.051 17.7931 14.2001 17.9121 14.309 18.0636C14.4179 18.2139 14.4748 18.3868 14.4795 18.5821H13.9504Z" fill="white"/>
<path d="M24.9806 17.6268H25.6464L26.8041 20.4535H26.8467L28.0044 17.6268H28.6702V21.2632H28.1482V18.6318H28.1145L27.042 21.2579H26.6088L25.5363 18.63H25.5026V21.2632H24.9806V17.6268Z" fill="white"/>
<path d="M37.8148 18.0991V17.6268H40.6291V18.0991H39.4945V21.2632H38.9476V18.0991H37.8148Z" fill="white"/>
<path d="M51.7196 21.2632L50.7111 17.6268H51.2882L51.9966 20.4429H52.0304L52.7672 17.6268H53.3389L54.0758 20.4446H54.1095L54.8162 17.6268H55.3951L54.3848 21.2632H53.8326L53.0673 18.5395H53.0389L52.2736 21.2632H51.7196Z" fill="white"/>
</svg>
