<svg width="107" height="116" viewBox="0 0 107 116" fill="none" xmlns="http://www.w3.org/2000/svg">
<rect width="107" height="116" rx="20" fill="#D8FFB9"/>
<path d="M53.5 76C54.8807 76 56 70.8513 56 64.5C56 58.1487 54.8807 53 53.5 53C52.1193 53 51 58.1487 51 64.5C51 70.8513 52.1193 76 53.5 76Z" fill="#C1B47C"/>
<path d="M54.2319 2.11487H52.5557V25.0817H54.2319V2.11487Z" fill="#ADA16F"/>
<path d="M45.2911 0C43.4961 0 43.4961 4.09639 45.2911 4.09639C50.3592 4.09639 55.4259 4.09639 60.4936 4.09639C61.5982 4.09639 62.4936 3.20096 62.4936 2.09639V2C62.4936 0.895431 61.5982 0 60.4936 0C55.4259 0 50.3592 0 45.2911 0Z" fill="#DCCC8C"/>
<path d="M59.5864 37.7282C59.5864 42.2751 56.8141 45.9605 53.3931 45.9605C49.9722 45.9605 47.1997 42.2751 47.1997 37.7282V32.0958C47.1997 27.5489 49.9735 23.8635 53.3931 23.8635C56.8154 23.8635 59.5864 27.5489 59.5864 32.0958V37.7282Z" fill="#C1B47C"/>
<path opacity="0.7" d="M53.393 79.8877C60.8651 79.8877 66.9223 73.4221 66.9223 65.4463C66.9223 57.4706 60.8651 51.005 53.393 51.005C45.921 51.005 39.8638 57.4706 39.8638 65.4463C39.8638 73.4221 45.921 79.8877 53.393 79.8877Z" fill="#FFD100"/>
<path d="M40.659 42.9025C37.6792 43.6116 34.5158 44.5901 31.5505 45.9605C21.7711 50.4834 19 53.7895 19 53.7895H32.8859C34.5409 49.7671 37.2869 46.179 40.659 42.9025Z" fill="#DCCC8C"/>
<path d="M40.659 42.9025C37.2856 46.1804 34.5396 49.7686 32.8859 53.7909H36.5353C37.8588 48.8987 40.5309 44.5986 44.9094 42.0326C43.5727 42.261 42.137 42.5514 40.659 42.9025Z" fill="#EADDA7"/>
<path d="M75.2356 45.9604C65.4549 41.4361 53.3931 41.0879 53.3931 41.0879C53.3931 41.0879 49.7779 41.1978 44.9094 42.0311C40.5321 44.5971 37.8588 48.8972 36.5353 53.7894H53.3931H87.7862C87.7862 53.7894 85.015 50.4847 75.2356 45.9604Z" fill="#DCCC8C"/>
<rect x="33" y="81.0037" width="9" height="1" rx="0.5" transform="rotate(-33.7765 33 81.0037)" fill="#EBE20E"/>
<rect x="65.407" y="76" width="9" height="1" rx="0.5" transform="rotate(24.0163 65.407 76)" fill="#EBE20E"/>
<rect x="54.973" y="82.9976" width="9" height="1" rx="0.5" transform="rotate(88.4973 54.973 82.9976)" fill="#EBE20E"/>
</svg>
